<svg xmlns="http://www.w3.org/2000/svg" xmlns:xlink="http://www.w3.org/1999/xlink" version="1.1" x="0px" y="0px" viewBox="0 0 100 100" enable-background="new 0 0 100 100" xml:space="preserve"><path d="M91.548,36.523c-11.02-2.277-22.219-2.809-33.292-0.555c-2.23,0.454-3.605,1.401-4.397,2.663  c-1.486,0.523-3.128,1.037-3.859,1.037c-0.73,0-2.372-0.513-3.858-1.037c-0.792-1.263-2.167-2.209-4.397-2.663  c-11.073-2.254-22.273-1.722-33.292,0.555c-1.802,0.373-2.008,1.065-2.008,1.065v4.151c0,0,0.567,0.16,1.493,1.331  c0.927,1.171,0.258,2.768,1.7,10.059c1.442,7.292,6.334,12.348,17.272,12.348c6.691,0,12.075-2.336,15.726-8.306  c1.73-2.829,2.759-6.109,3.569-9.327c0.208-0.826,0.397-1.653,0.545-2.465C48.503,44.909,50,44.654,50,44.654  s1.497,0.256,3.252,0.725c0.148,0.813,0.337,1.64,0.545,2.465c0.81,3.219,1.839,6.498,3.569,9.327  c3.651,5.97,9.035,8.306,15.726,8.306c10.938,0,15.83-5.056,17.271-12.348c1.442-7.292,0.772-8.888,1.699-10.059  c0.927-1.171,1.494-1.331,1.494-1.331v-4.151C93.556,37.588,93.35,36.896,91.548,36.523z"></path></svg>