<svg xmlns="http://www.w3.org/2000/svg" xmlns:xlink="http://www.w3.org/1999/xlink" version="1.1" x="0px" y="0px" viewBox="0 0 164 164" enable-background="new 0 0 164 164" xml:space="preserve"><g><path fill-rule="evenodd" clip-rule="evenodd" d="M116.089,103.366c-0.73,5.419-1.383,9.605-0.482,19.958   c0.907,10.418,5.208,14.354,4.995,29.256c-0.053,3.658,0.508,7.57,0.919,11.42H88.747c-1.101-6.7-2.999-14.041-5.599-19.326   c-1.04-1.138-5.191,6.92-8.416,19.326H42.16c1.887-13.806,1.803-27.484,7.836-40.552c1.288-2.788,2.283-5.075,2.364-8.103   c0.97-7.581-0.466-11.903-0.107-11.835C67.814,106.514,99.827,106.491,116.089,103.366z"></path><path fill-rule="evenodd" clip-rule="evenodd" d="M102.134,1.004c5.241,1.32,10.662,1.791,12.061,2.131   c10.191,2.477,11.794,2.594,14.487,7.437c4.06,7.298,8.944,15.952,16.491,21.498c-4.391,7.7-10.567,12.529-18.486,16.722   c-2.954-3.333-6.825-6.713-12.365-10.184c1.158,15.107-1.999,15.678-2.45,30.904c-0.274,9.249,3.172,18.592,4.579,27.782   c-22.506,2.887-42.027,2.962-66.142,0c7.246-21.51,4.768-38.827-1.879-59.759c-3.805,0.709-9.903,9.885-11.079,12.077   c-9.422-5.051-15.905-10.888-18.842-18.278c8.782-8.018,12.344-16.06,17.354-21.912c3.809-4.45,6.397-6.548,12.455-7.73   c3.202-0.625,6.677-0.903,9.957-1.374C69.053,13.833,91.963,14.544,102.134,1.004z"></path></g></svg>