<svg xmlns="http://www.w3.org/2000/svg" xmlns:xlink="http://www.w3.org/1999/xlink" version="1.1" x="0px" y="0px" viewBox="0 0 100 100" enable-background="new 0 0 100 100" xml:space="preserve"><path d="M87.447,32.805c10.842,8.225-5.576-10.683-8.972-12.481c-12.122-6.416-43.745-7.335-54.215,8.369  C6.123,31.31,1.371,53.218,7.593,80.468c1.808,0.479,3.65-0.868,5.45,3.56l1.683-27.295c0,0,14.754,19.105,58.886,9.302  c-10.891-0.142-17.665-0.842-24.536-3.507c7.992,1.122,17.896,4.432,31.081,2.804c-12.339-4.859-12.153-7.477-12.153-7.477  s8.225,1.683,13.459,7.104c-3.25-6.647-7.104-9.16-7.104-9.16s13.955,3.079,15.451,27.331c0.843-3.504,4.461-2.932,4.461-2.932  S98.289,42.526,87.447,32.805z"></path></svg>