<svg id="Layer_1" data-name="Layer 1" xmlns="http://www.w3.org/2000/svg" xmlns:xlink="http://www.w3.org/1999/xlink" viewBox="0 0 89.19 74.35"><defs><style>.cls-1{fill:url(#radial-gradient);}.cls-2{fill:#282c48;}.cls-3{fill:#fff;}.cls-4{fill:#5c302a;}.cls-5{fill:url(#linear-gradient);}.cls-6{fill:#fffbfd;}.cls-7{fill:url(#linear-gradient-2);}.cls-8{fill:url(#linear-gradient-3);}.cls-9{fill:url(#linear-gradient-4);}.cls-10,.cls-19{fill:none;stroke-miterlimit:10;}.cls-10{stroke:#282c48;stroke-linecap:round;stroke-width:0.4px;}.cls-11{fill:#fefefe;}.cls-12{fill:#ececec;}.cls-13{fill:url(#linear-gradient-5);}.cls-14{fill:url(#linear-gradient-6);}.cls-15{fill:url(#linear-gradient-7);}.cls-16{fill:#772316;}.cls-17{fill:#fbd4a5;}.cls-18{fill:url(#linear-gradient-8);}.cls-19{stroke:#d0b084;stroke-width:0.2px;}.cls-20{fill:#7c2f3a;}.cls-21{fill:#f83e3c;}.cls-22{fill:url(#linear-gradient-9);}.cls-23{fill:url(#linear-gradient-10);}.cls-24{fill:url(#linear-gradient-11);}.cls-25{fill:url(#linear-gradient-12);}.cls-26{fill:url(#linear-gradient-13);}.cls-27{fill:azure;}.cls-28{fill:url(#linear-gradient-14);}.cls-29{fill:url(#linear-gradient-15);}.cls-30{fill:url(#linear-gradient-16);}.cls-31{fill:url(#linear-gradient-17);}.cls-32{fill:url(#linear-gradient-18);}.cls-33{fill:url(#linear-gradient-19);}.cls-34{fill:url(#linear-gradient-20);}.cls-35{fill:url(#linear-gradient-21);}.cls-36{fill:url(#linear-gradient-22);}.cls-37{fill:url(#linear-gradient-23);}.cls-38{fill:url(#linear-gradient-24);}</style><radialGradient id="radial-gradient" cx="-560.59" cy="423.57" r="44.93" gradientTransform="translate(605.19 -313.91) scale(1 0.83)" gradientUnits="userSpaceOnUse"><stop offset="0" stop-color="#b3ebf3"/><stop offset="0.12" stop-color="#b3ebf3" stop-opacity="0.98"/><stop offset="0.24" stop-color="#b3ebf3" stop-opacity="0.93"/><stop offset="0.38" stop-color="#b3ebf3" stop-opacity="0.84"/><stop offset="0.51" stop-color="#b3ebf3" stop-opacity="0.71"/><stop offset="0.65" stop-color="#b3ebf3" stop-opacity="0.55"/><stop offset="0.79" stop-color="#b3ebf3" stop-opacity="0.35"/><stop offset="0.93" stop-color="#b3ebf3" stop-opacity="0.12"/><stop offset="1" stop-color="#b3ebf3" stop-opacity="0"/></radialGradient><linearGradient id="linear-gradient" x1="-564.27" y1="416.03" x2="-564.27" y2="431.03" gradientUnits="userSpaceOnUse"><stop offset="0" stop-color="#fffafd"/><stop offset="0.4" stop-color="#fcf8fb"/><stop offset="0.63" stop-color="#f4f2f4"/><stop offset="0.83" stop-color="#e6e9e7"/><stop offset="1" stop-color="#d2dbd6"/></linearGradient><linearGradient id="linear-gradient-2" x1="56.72" y1="34.63" x2="56.72" y2="44.63" gradientUnits="userSpaceOnUse"><stop offset="0" stop-color="#3d4363" stop-opacity="0.8"/><stop offset="0.65" stop-color="#373d5c" stop-opacity="0.85"/><stop offset="1" stop-color="#282c48"/></linearGradient><linearGradient id="linear-gradient-3" x1="-474.53" y1="502.62" x2="-474.53" y2="504.62" gradientTransform="translate(-75.14 -80.04)" xlink:href="#linear-gradient-2"/><linearGradient id="linear-gradient-4" x1="-473.23" y1="502.62" x2="-473.23" y2="504.62" gradientTransform="translate(-76.44 -78.74)" xlink:href="#linear-gradient-2"/><linearGradient id="linear-gradient-5" x1="59.99" y1="47.47" x2="65.04" y2="42.42" gradientUnits="userSpaceOnUse"><stop offset="0" stop-color="#ffebf0"/><stop offset="1" stop-color="#f3837d"/></linearGradient><linearGradient id="linear-gradient-6" x1="65.04" y1="36.65" x2="59.99" y2="31.61" xlink:href="#linear-gradient-5"/><linearGradient id="linear-gradient-7" x1="-542.53" y1="424.66" x2="-542.53" y2="427.62" gradientUnits="userSpaceOnUse"><stop offset="0" stop-color="#ff4e58"/><stop offset="1" stop-color="#dc0e31"/></linearGradient><linearGradient id="linear-gradient-8" x1="-563.17" y1="415.09" x2="-559.09" y2="415.09" gradientUnits="userSpaceOnUse"><stop offset="0" stop-color="#6d210e"/><stop offset="1" stop-color="#884331"/></linearGradient><linearGradient id="linear-gradient-9" x1="-580.05" y1="404.71" x2="-571.51" y2="404.71" gradientUnits="userSpaceOnUse"><stop offset="0" stop-color="azure" stop-opacity="0"/><stop offset="1" stop-color="azure"/></linearGradient><linearGradient id="linear-gradient-10" x1="-570.55" y1="400.69" x2="-560.39" y2="400.69" xlink:href="#linear-gradient-9"/><linearGradient id="linear-gradient-11" x1="-550.53" y1="404.59" x2="-545.45" y2="404.59" xlink:href="#linear-gradient-9"/><linearGradient id="linear-gradient-12" x1="-560.39" y1="407.16" x2="-552.95" y2="407.16" xlink:href="#linear-gradient-9"/><linearGradient id="linear-gradient-13" x1="23.43" y1="50.56" x2="31.52" y2="50.56" xlink:href="#linear-gradient-9"/><linearGradient id="linear-gradient-14" x1="38.95" y1="53.79" x2="44.38" y2="53.79" xlink:href="#linear-gradient-9"/><linearGradient id="linear-gradient-15" x1="42.03" y1="47.39" x2="47.46" y2="47.39" xlink:href="#linear-gradient-9"/><linearGradient id="linear-gradient-16" x1="47.93" y1="50.55" x2="55.44" y2="50.55" xlink:href="#linear-gradient-9"/><linearGradient id="linear-gradient-17" x1="62.38" y1="45.8" x2="67.66" y2="45.8" xlink:href="#linear-gradient-9"/><linearGradient id="linear-gradient-18" x1="54.88" y1="38.03" x2="64.93" y2="38.03" xlink:href="#linear-gradient-9"/><linearGradient id="linear-gradient-19" x1="47.66" y1="32.69" x2="57.71" y2="32.69" xlink:href="#linear-gradient-9"/><linearGradient id="linear-gradient-20" x1="49.48" y1="28" x2="53.87" y2="28" xlink:href="#linear-gradient-9"/><linearGradient id="linear-gradient-21" x1="59.6" y1="30.08" x2="66.07" y2="30.08" xlink:href="#linear-gradient-9"/><linearGradient id="linear-gradient-22" x1="27.34" y1="29.6" x2="35.76" y2="29.6" xlink:href="#linear-gradient-9"/><linearGradient id="linear-gradient-23" x1="22.55" y1="27.69" x2="28.17" y2="27.69" xlink:href="#linear-gradient-9"/><linearGradient id="linear-gradient-24" x1="20.92" y1="42.94" x2="26.54" y2="42.94" xlink:href="#linear-gradient-9"/></defs><title>boost_illustration</title><ellipse class="cls-1" cx="44.59" cy="37.18" rx="44.59" ry="37.18"/><rect class="cls-2" x="52.95" y="44.37" width="1" height="4" rx="0.2" ry="0.2"/><rect class="cls-2" x="-555.53" y="429.06" width="1" height="7" rx="0.2" ry="0.2" transform="translate(136.75 -652.17) rotate(-45)"/><circle class="cls-2" cx="53.45" cy="51.06" r="3"/><circle class="cls-3" cx="53.45" cy="51.06" r="1.5"/><circle class="cls-4" cx="53.45" cy="51.06" r="0.4"/><rect class="cls-2" x="27.22" y="43.61" width="0.4" height="2.4" rx="0.2" ry="0.2"/><rect class="cls-2" x="-576.53" y="430.29" width="0.4" height="2.4" rx="0.2" ry="0.2" transform="translate(741.5 147.51) rotate(45)"/><circle class="cls-2" cx="27.56" cy="46.97" r="1.3"/><circle class="cls-3" cx="27.56" cy="46.97" r="0.5"/><circle class="cls-4" cx="27.56" cy="46.97" r="0.2"/><path class="cls-5" d="M-547.27,421h-27a5,5,0,0,0-5-5,5,5,0,0,0-5,5,10,10,0,0,0,10,10h27a3,3,0,0,0,3-3v-4A3,3,0,0,0-547.27,421Z" transform="translate(605.19 -386.4)"/><rect class="cls-6" x="41.25" y="33.63" width="8" height="1" rx="0.5" ry="0.5"/><rect class="cls-7" x="56.52" y="34.63" width="0.4" height="10"/><path class="cls-8" d="M-550,422.57h0.6a0,0,0,0,1,0,0v1.8a0.2,0.2,0,0,1-.2.2h-0.2a0.2,0.2,0,0,1-.2-0.2v-1.8A0,0,0,0,1-550,422.57Z" transform="translate(479.1 586.84) rotate(90)"/><path class="cls-9" d="M-550,423.87h0.6a0,0,0,0,1,0,0v1.8a0.2,0.2,0,0,1-.2.2h-0.2a0.2,0.2,0,0,1-.2-0.2v-1.8A0,0,0,0,1-550,423.87Z" transform="translate(480.4 588.14) rotate(90)"/><line class="cls-10" x1="52.58" y1="40.46" x2="56.21" y2="24.94"/><line class="cls-10" x1="37.72" y1="41.33" x2="41.84" y2="23.72"/><path class="cls-11" d="M-546.69,409.71h-19.9c0-1.11,16.8-2,17.9-2A2,2,0,0,1-546.69,409.71Z" transform="translate(605.19 -386.4)"/><path class="cls-12" d="M-546.69,409.71a2,2,0,0,1-2,2c-1.1,0-17.9-.89-17.9-2h19.9Z" transform="translate(605.19 -386.4)"/><path class="cls-11" d="M-551.11,428.38H-571c0-1.11,16.8-2,17.9-2A2,2,0,0,1-551.11,428.38Z" transform="translate(605.19 -386.4)"/><path class="cls-12" d="M-551.11,428.38a2,2,0,0,1-2,2c-1.1,0-17.9-.89-17.9-2h19.9Z" transform="translate(605.19 -386.4)"/><ellipse class="cls-13" cx="62.52" cy="44.94" rx="0.7" ry="5"/><ellipse class="cls-14" cx="62.52" cy="34.13" rx="0.7" ry="5"/><path class="cls-15" d="M-542.27,424.66a0.62,0.62,0,0,0-.7.48h-1.3v2h1.3a0.62,0.62,0,0,0,.7.48,1.48,1.48,0,0,0,1.48-1.48A1.48,1.48,0,0,0-542.27,424.66Z" transform="translate(605.19 -386.4)"/><path class="cls-16" d="M-558,420l-1.44-1.11h-3s-0.47.69-.69,1.11H-558Z" transform="translate(605.19 -386.4)"/><path class="cls-17" d="M-559.57,414.56a1.91,1.91,0,0,1,0,1c-0.16.35,0.58,0.79,0.47,1.06s-0.3.25-.38,0.17a4.5,4.5,0,0,0-.11,1.1h-2.74v-1l0.5-1.56,0.35-.18,0.56-.63Z" transform="translate(605.19 -386.4)"/><path class="cls-18" d="M-560.78,414.67s1.69,0.23,1.69-.75-1.23-1-1.79-1-2.29.58-2.29,1.58,0.56,3,1,2.69,0-1.58.54-1.56-0.1.66,0.54,0.65S-561.26,414.64-560.78,414.67Z" transform="translate(605.19 -386.4)"/><line class="cls-19" x1="45.62" y1="30.96" x2="44.94" y2="30.96"/><path class="cls-20" d="M-561.13,415.65h1.57a0.21,0.21,0,0,1,.15-0.22,0.84,0.84,0,0,1,.14.65c0,0.17,0,.29-0.09.29s-0.16,0-.2-0.29-1.11-.3-1.57-0.26v-0.16Z" transform="translate(605.19 -386.4)"/><path class="cls-21" d="M-559.59,417.88a0.54,0.54,0,0,1,.32.42,1.25,1.25,0,0,1-.16,1c-0.21,0-3.3.3-4.65,0.22s-2-.58-3-0.22a7.85,7.85,0,0,1-3.35.94c-1.58,0-2.44-.25-2.08-0.48s0.38-.5.19-0.61-0.58-.35.77-0.33,3.5,0.21,3.13-.17-1.58-.19-1.85-0.19-0.1-.19,0-0.44,0.13-.17-0.17-0.33,0.17-.38,1.15-0.37,2,0.41,2.79.47S-560.05,417.73-559.59,417.88Z" transform="translate(605.19 -386.4)"/><path class="cls-22" d="M-571.51,405.79h-8.54s0.79-2,2.58-1.46c0,0,2.21-1.67,3.58.13C-573.89,404.46-571.55,404-571.51,405.79Z" transform="translate(605.19 -386.4)"/><path class="cls-23" d="M-560.39,402h-10.17s0.94-2.33,3.07-1.74c0,0,2.63-2,4.27.15C-563.21,400.39-560.44,399.8-560.39,402Z" transform="translate(605.19 -386.4)"/><path class="cls-24" d="M-545.45,405.23h-5.08a1.36,1.36,0,0,1,1.54-.87s1.31-1,2.13.07C-546.86,404.44-545.47,404.14-545.45,405.23Z" transform="translate(605.19 -386.4)"/><path class="cls-25" d="M-552.95,408.1h-7.44a2,2,0,0,1,2.25-1.27s1.92-1.45,3.12.11C-555,406.94-553,406.51-552.95,408.1Z" transform="translate(605.19 -386.4)"/><rect class="cls-26" x="23.43" y="50.1" width="8.09" height="0.91"/><circle class="cls-27" cx="31.52" cy="50.56" r="0.45"/><rect class="cls-28" x="38.95" y="53.49" width="5.43" height="0.61"/><circle class="cls-27" cx="44.38" cy="53.79" r="0.3"/><rect class="cls-29" x="42.03" y="47.09" width="5.43" height="0.61"/><circle class="cls-27" cx="47.46" cy="47.39" r="0.3"/><rect class="cls-30" x="47.93" y="50.13" width="7.52" height="0.84"/><circle class="cls-27" cx="55.44" cy="50.55" r="0.42"/><rect class="cls-31" x="62.38" y="45.5" width="5.28" height="0.59"/><circle class="cls-27" cx="67.66" cy="45.8" r="0.3"/><rect class="cls-32" x="54.88" y="37.47" width="10.05" height="1.13"/><circle class="cls-27" cx="64.93" cy="38.03" r="0.56"/><rect class="cls-33" x="47.66" y="32.12" width="10.05" height="1.13"/><circle class="cls-27" cx="57.71" cy="32.69" r="0.56"/><rect class="cls-34" x="49.48" y="27.76" width="4.39" height="0.49"/><circle class="cls-27" cx="53.87" cy="28" r="0.25"/><rect class="cls-35" x="59.6" y="29.71" width="6.47" height="0.72"/><circle class="cls-27" cx="66.07" cy="30.08" r="0.36"/><rect class="cls-36" x="27.34" y="29.13" width="8.42" height="0.94"/><circle class="cls-27" cx="35.76" cy="29.6" r="0.47"/><rect class="cls-37" x="22.55" y="27.37" width="5.62" height="0.63"/><circle class="cls-27" cx="28.17" cy="27.69" r="0.31"/><rect class="cls-38" x="20.92" y="42.62" width="5.62" height="0.63"/><circle class="cls-27" cx="26.54" cy="42.94" r="0.31"/></svg>