<?xml version="1.0" encoding="utf-8"?>
<!-- Generator: Adobe Illustrator 19.2.1, SVG Export Plug-In . SVG Version: 6.00 Build 0)  -->
<svg version="1.1" id="Layer_1" xmlns="http://www.w3.org/2000/svg" xmlns:xlink="http://www.w3.org/1999/xlink" x="0px" y="0px"
	 viewBox="0 0 360.8 249.5" style="enable-background:new 0 0 360.8 249.5;" xml:space="preserve">
<style type="text/css">
	.st0{fill:#C7DBF4;}
	.st1{font-family:'SegoeUI-Bold';}
	.st2{font-size:37.34px;}
	.st3{letter-spacing:2;}
	.st4{letter-spacing:3;}
</style>
<title>MLG LOGO</title>
<path class="st0" d="M142.9,182.7L142.9,182.7c0,1.3,0,2.5,0,3.8V182.7z"/>
<path class="st0" d="M116.2,186.4c0-1.2,0-2.5,0-3.7l0,0C116.2,183.4,116.2,185.7,116.2,186.4z"/>
<path class="st0" d="M30.6,182.9L30.6,182.9c0,1.1,0,2.3,0,3.4V182.9z"/>
<path class="st0" d="M341.4,67.6c-13.2,0-69.8-0.1-69.8-0.1l0,25.9h46.3c0,0,13.1-1.2,13,9.1c0,8.1,0,23.8,0,30.4
	c0,4.4-1.2,11.4-3.7,15c-2,2.9-4.8,5.2-8.1,6.7c-10.8,5-25.6,6.3-42.5,0.5c-16.9-5.8-20.8-22.2-20.8-32.7s0.4-54.7-1-62.9
	c-1.4-8.2-2.6-14.5-6.6-23l-0.1,0.1c-2.5-5.2-16.9-31.6-50.2-36c-0.7-0.2-1.4-0.4-2.1-0.6h-16c-2.5,0.6-5.1,1.1-7.6,1.7
	c-15.5,3.9-27.9,12.6-37.7,25c-0.9,1.1-1.7,2.2-2.7,3.6c-4.9-7.6-10.5-14.1-17.7-19.2c-8.2-5.7-17.7-9.3-27.6-10.5
	c-0.8-0.2-1.7-0.4-2.5-0.6H68.6c-2.6,0.6-5.2,1-7.7,1.7C49.1,4.6,34.4,11.6,26,20.4C15.8,31.1,11.4,39.2,7.8,54
	c-1.6,6.4-2.2,12-3.2,18.5c-0.2,1.1-0.4,5.7-0.6,6.8v103.6h26.7c0-31.9-0.2-75.4,0.1-106.4C30.8,59.2,38,45,51.8,34.3
	c18.8-14.5,49.2-9.2,59.5,14.3c3.6,8.3,4.9,17,4.9,26c0.1,31.5,0,75.6,0,108.1h26.7c0-31.7,0-74.9,0-105.7c0-13.1,3.9-25,12.4-35
	c11.2-13.1,25.4-18.3,42.3-14.5c0,0,15.5,1.8,29.2,28.8c1,4.5,1.7,9.1,2.1,13.7c0.3,6,0.5,52.2,0.5,58.4s-1,25.1,17.8,39.9
	s50,18.9,73.3,11.1c23.3-7.8,34.4-17.7,34.4-41.3V83.4C354.8,72.7,347.1,67.6,341.4,67.6z"/>
<text transform="matrix(1 0 0 1 0 233.53)" class="st0 st1 st2 st3">MYL</text>
<text transform="matrix(1 0 0 1 85.51 233.53)" class="st0 st1 st2 st4">E</text>
<text transform="matrix(1 0 0 1 108.91 233.53)" class="st0 st1 st2 st3">ARNINGURU</text>
</svg>
