<svg xmlns="http://www.w3.org/2000/svg" xmlns:xlink="http://www.w3.org/1999/xlink" viewBox="0 0 140.47 112.51"><defs><style>.cls-1{fill:url(#linear-gradient);}.cls-2{isolation:isolate;}.cls-3{fill:#f3f3f3;}.cls-4{fill:url(#linear-gradient-2);}.cls-5{fill:url(#linear-gradient-3);}.cls-6{fill:url(#linear-gradient-4);}.cls-7{fill:url(#linear-gradient-5);}.cls-8{fill:url(#linear-gradient-6);}.cls-9{fill:url(#linear-gradient-7);}.cls-10{fill:url(#linear-gradient-8);}.cls-11{fill:#924dfe;}.cls-12{fill:url(#linear-gradient-9);}.cls-13{fill:url(#linear-gradient-10);}.cls-14{fill:url(#linear-gradient-11);}.cls-15{fill:url(#linear-gradient-12);}.cls-16{fill:url(#linear-gradient-13);}.cls-17{fill:#236ce0;}.cls-18{fill:url(#linear-gradient-14);}.cls-19{fill:url(#linear-gradient-15);}.cls-20{fill:#10e7fb;}.cls-21{fill:#07caf9;}.cls-22{fill:#01a8f5;mix-blend-mode:color-burn;}.cls-23{fill:url(#linear-gradient-16);}.cls-24{fill:#feb649;}.cls-25{clip-path:url(#clip-path);}.cls-26{fill:#fee385;opacity:0.7;}</style><linearGradient id="linear-gradient" x1="132.21" y1="51.16" x2="80.85" y2="102.52" gradientUnits="userSpaceOnUse"><stop offset="0" stop-color="#fed66e"/><stop offset="1" stop-color="#feb23f"/></linearGradient><linearGradient id="linear-gradient-2" x1="61.94" y1="19.8" x2="61.94" y2="55.61" gradientUnits="userSpaceOnUse"><stop offset="0" stop-color="#e7e7e7"/><stop offset="1" stop-color="#d5d5d5"/></linearGradient><linearGradient id="linear-gradient-3" x1="86.24" y1="35.14" x2="86.24" y2="55.61" xlink:href="#linear-gradient-2"/><linearGradient id="linear-gradient-4" x1="62.01" y1="94.01" x2="44.28" y2="111.74" gradientUnits="userSpaceOnUse"><stop offset="0" stop-color="#c388f6"/><stop offset="1" stop-color="#c675e1"/></linearGradient><linearGradient id="linear-gradient-5" x1="54.43" y1="102.87" x2="114.84" y2="102.87" gradientUnits="userSpaceOnUse"><stop offset="0" stop-color="#f8fafb"/><stop offset="1" stop-color="#daf2fe"/></linearGradient><linearGradient id="linear-gradient-6" x1="82.7" y1="106.73" x2="114.84" y2="106.73" gradientUnits="userSpaceOnUse"><stop offset="0" stop-color="#daf1fb"/><stop offset="1" stop-color="#c6ebfd"/></linearGradient><linearGradient id="linear-gradient-7" x1="82.7" y1="99.66" x2="114.84" y2="99.66" xlink:href="#linear-gradient-6"/><linearGradient id="linear-gradient-8" x1="86.27" y1="138.59" x2="146.68" y2="138.59" gradientUnits="userSpaceOnUse"><stop offset="0" stop-opacity="0.1"/><stop offset="1" stop-opacity="0"/></linearGradient><linearGradient id="linear-gradient-9" x1="68.28" y1="74.73" x2="50.55" y2="92.46" gradientUnits="userSpaceOnUse"><stop offset="0" stop-color="#679ff2"/><stop offset="1" stop-color="#8291fc"/></linearGradient><linearGradient id="linear-gradient-10" x1="60.7" y1="83.59" x2="121.11" y2="83.59" xlink:href="#linear-gradient-5"/><linearGradient id="linear-gradient-11" x1="88.97" y1="87.45" x2="121.11" y2="87.45" xlink:href="#linear-gradient-6"/><linearGradient id="linear-gradient-12" x1="88.97" y1="80.38" x2="121.11" y2="80.38" xlink:href="#linear-gradient-6"/><linearGradient id="linear-gradient-13" x1="92.54" y1="119.3" x2="152.95" y2="119.3" xlink:href="#linear-gradient-8"/><linearGradient id="linear-gradient-14" x1="389.95" y1="366.18" x2="384.98" y2="371.15" gradientTransform="matrix(0.25, -0.62, 0.25, 0.62, -113.77, 119.66)" xlink:href="#linear-gradient"/><linearGradient id="linear-gradient-15" x1="-93.01" y1="257.69" x2="-97.99" y2="262.66" gradientTransform="matrix(0.75, -5.35, 0.75, 5.35, -68.85, -1773.55)" gradientUnits="userSpaceOnUse"><stop offset="0" stop-color="#07caf9"/><stop offset="1" stop-color="#0cdffb"/></linearGradient><linearGradient id="linear-gradient-16" x1="82.91" y1="101.48" x2="77.94" y2="106.45" gradientTransform="translate(-49.96 87.32) rotate(-45)" xlink:href="#linear-gradient"/><clipPath id="clip-path" transform="translate(-31.84 -40.52)"><path class="cls-1" d="M106.53,40.52a36.32,36.32,0,1,0,36.32,36.32A36.32,36.32,0,0,0,106.53,40.52Zm0,65.68a29.36,29.36,0,1,1,29.36-29.36A29.36,29.36,0,0,1,106.53,106.2Z"/></clipPath></defs><title>search-glass</title><g class="cls-2"><g id="Layer_2" data-name="Layer 2"><rect class="cls-3" x="7.71" y="35.14" width="11.25" height="20.46" rx="3" ry="3"/><rect class="cls-3" x="32.01" y="19.8" width="11.25" height="35.81" rx="3" ry="3"/><rect class="cls-4" x="56.31" y="19.8" width="11.25" height="35.81" rx="3" ry="3"/><rect class="cls-5" x="80.61" y="35.14" width="11.25" height="20.46" rx="3" ry="3"/><rect class="cls-3" x="129.21" y="35.14" width="11.25" height="20.46" rx="3" ry="3"/><rect class="cls-3" x="104.91" y="43.68" width="11.25" height="11.92" rx="3" ry="3"/><rect class="cls-6" x="40.29" y="93.23" width="25.71" height="19.28" rx="8.13" ry="8.13"/><path class="cls-7" d="M61.46,93.87h53.38a0,0,0,0,1,0,0v18a0,0,0,0,1,0,0H62.57a8.15,8.15,0,0,1-8.15-8.15v-2.81A7,7,0,0,1,61.46,93.87Z"/><path class="cls-8" d="M83.25,106.09h31.59a0,0,0,0,1,0,0v1.29a0,0,0,0,1,0,0H83.25a0.54,0.54,0,0,1-.54-0.54v-0.2A0.54,0.54,0,0,1,83.25,106.09Z"/><path class="cls-9" d="M83.25,99h31.59a0,0,0,0,1,0,0v1.29a0,0,0,0,1,0,0H83.25a0.54,0.54,0,0,1-.54-0.54v-0.2A0.54,0.54,0,0,1,83.25,99Z"/><path class="cls-10" d="M86.27,141.16l60.4-5.14H91a4.69,4.69,0,0,0-4.69,4.69v0.45Z" transform="translate(-31.84 -40.52)"/><path class="cls-11" d="M148,153H91.41c-4.25,0-7.71-3.05-7.71-6.8v-5.67c0-3.75,3.46-6.8,7.71-6.8H148a1.14,1.14,0,1,1,0,2.27H91.41c-2.83,0-5.14,2-5.14,4.54v5.67c0,2.5,2.31,4.54,5.14,4.54H148A1.14,1.14,0,1,1,148,153Z" transform="translate(-31.84 -40.52)"/><rect class="cls-12" x="46.56" y="73.95" width="25.71" height="19.28" rx="8.13" ry="8.13"/><path class="cls-13" d="M67.73,74.59h53.38a0,0,0,0,1,0,0v18a0,0,0,0,1,0,0H68.84a8.15,8.15,0,0,1-8.15-8.15V81.63A7,7,0,0,1,67.73,74.59Z"/><path class="cls-14" d="M89.52,86.81h31.59a0,0,0,0,1,0,0v1.29a0,0,0,0,1,0,0H89.52A0.54,0.54,0,0,1,89,87.55v-0.2a0.54,0.54,0,0,1,.54-0.54Z"/><path class="cls-15" d="M89.52,79.74h31.59a0,0,0,0,1,0,0V81a0,0,0,0,1,0,0H89.52A0.54,0.54,0,0,1,89,80.48v-0.2A0.54,0.54,0,0,1,89.52,79.74Z"/><path class="cls-16" d="M92.54,121.87l60.4-5.14H97.24a4.69,4.69,0,0,0-4.69,4.69v0.45Z" transform="translate(-31.84 -40.52)"/><path class="cls-17" d="M154.3,133.75H97.69c-4.25,0-7.71-3.05-7.71-6.8v-5.67c0-3.75,3.46-6.8,7.71-6.8H154.3a1.14,1.14,0,1,1,0,2.27H97.69c-2.83,0-5.14,2-5.14,4.54v5.67c0,2.5,2.31,4.54,5.14,4.54H154.3A1.14,1.14,0,1,1,154.3,133.75Z" transform="translate(-31.84 -40.52)"/><path class="cls-18" d="M73.78,105h5.12a0,0,0,0,1,0,0v4.14a2,2,0,0,1-2,2H75.78a2,2,0,0,1-2-2V105a0,0,0,0,1,0,0Z" transform="translate(66.93 -62.85) rotate(45)"/><rect class="cls-19" x="47.69" y="102.43" width="15.35" height="53.2" rx="4" ry="4" transform="translate(75.61 -41.87) rotate(45)"/><path class="cls-20" d="M51.36,97.73h0.32a0,0,0,0,1,0,0v53.2a0,0,0,0,1,0,0H51.36a1.73,1.73,0,0,1-1.73-1.73V99.46a1.73,1.73,0,0,1,1.73-1.73Z" transform="translate(70.91 -39.93) rotate(45)"/><path class="cls-21" d="M59,107.13h0.32a1.73,1.73,0,0,1,1.73,1.73v49.75a1.73,1.73,0,0,1-1.73,1.73H59a0,0,0,0,1,0,0v-53.2A0,0,0,0,1,59,107.13Z" transform="translate(80.32 -43.82) rotate(45)"/><rect class="cls-22" x="58.12" y="117.58" width="15.35" height="2.05" transform="translate(71.3 -52.3) rotate(45)"/><rect class="cls-22" x="41.28" y="134.42" width="15.35" height="2.05" transform="translate(78.27 -35.46) rotate(45)"/><path class="cls-23" d="M73.23,100.45H87.62a0,0,0,0,1,0,0v5a2,2,0,0,1-2,2H75.23a2,2,0,0,1-2-2v-5A0,0,0,0,1,73.23,100.45Z" transform="translate(65.23 -66.94) rotate(45)"/><path class="cls-24" d="M106.53,41.54a36.32,36.32,0,1,0,36.32,36.32A36.32,36.32,0,0,0,106.53,41.54Zm0,65.68a29.36,29.36,0,1,1,29.36-29.36A29.36,29.36,0,0,1,106.53,107.22Z" transform="translate(-31.84 -40.52)"/><path class="cls-1" d="M106.53,40.52a36.32,36.32,0,1,0,36.32,36.32A36.32,36.32,0,0,0,106.53,40.52Zm0,65.68a29.36,29.36,0,1,1,29.36-29.36A29.36,29.36,0,0,1,106.53,106.2Z" transform="translate(-31.84 -40.52)"/><g class="cls-25"><rect class="cls-26" x="66.26" y="69.76" width="76.73" height="4.09" transform="translate(-53.36 17.51) rotate(-28.23)"/><rect class="cls-26" x="67.35" y="75.52" width="76.73" height="2.05" transform="translate(-55.47 18.59) rotate(-28.23)"/></g></g></g></svg>