<svg fill="#561D12" xmlns:dc="http://purl.org/dc/elements/1.1/" xmlns:cc="http://creativecommons.org/ns#" xmlns:rdf="http://www.w3.org/1999/02/22-rdf-syntax-ns#" xmlns:svg="http://www.w3.org/2000/svg" xmlns="http://www.w3.org/2000/svg" xmlns:sodipodi="http://sodipodi.sourceforge.net/DTD/sodipodi-0.dtd" xmlns:inkscape="http://www.inkscape.org/namespaces/inkscape" version="1.1" x="0px" y="0px" viewBox="0 0 100 100"><g transform="translate(0,-952.36218)"><path style="text-indent:0;text-transform:none;direction:ltr;block-progression:tb;baseline-shift:baseline;color:#000000;enable-background:accumulate;" d="m 4.999999,957.36217 0,2 0,22 4,0 0,-17.1875 28.5937,28.59375 2.8126,-2.84375 -28.5626,-28.5625 17.1563,0 0,-4 -22,0 -2,0 z m 66,0 0,4 17.156302,0 -28.562602,28.5625 2.8126,2.84375 28.593702,-28.59375 0,17.1875 4,0 0,-22 0,-2 -2,0 -22.000002,0 z m -33.4063,54.56253 -28.5937,28.5937 0,-17.1562 -4,0 0,22 0,2 2,0 22,0 0,-4 -17.1875,0 28.5938,-28.5938 -2.8126,-2.8437 z m 24.8126,0 -2.8126,2.8437 28.593802,28.5938 -17.187502,0 0,4 22.000002,0 2,0 0,-2 0,-22 -4,0 0,17.1562 -28.593702,-28.5937 z" fill="#561D12" fill-opacity="1" stroke="none" marker="none" visibility="visible" display="inline" overflow="visible"></path></g></svg>