<svg id="Objects" xmlns="http://www.w3.org/2000/svg" viewBox="0 0 107.8 281.16"><defs><style>.cls-1{fill:#f7dbc6;}.cls-1,.cls-10,.cls-2,.cls-3,.cls-4,.cls-5,.cls-7,.cls-8,.cls-9{fill-rule:evenodd;}.cls-2{fill:#425156;}.cls-3{fill:#4e6078;}.cls-4{fill:#ccc;}.cls-5,.cls-6{fill:#707c80;}.cls-7{fill:#46ab63;}.cls-8{opacity:0.1;}.cls-9{opacity:0.2;}.cls-10{fill:#c47816;}</style></defs><title>boy</title><path class="cls-1" d="M145.18,263.23h0a2.3,2.3,0,0,0-3.23.32l-3.53,4.31a2.3,2.3,0,0,0,.32,3.23h0a2.3,2.3,0,0,0,3.23-.32l3.53-4.31A2.3,2.3,0,0,0,145.18,263.23Z" transform="translate(-61.67 -92.92)"/><path class="cls-1" d="M85.44,263h0a2.3,2.3,0,0,1,3.24.14l3.77,4.1a2.3,2.3,0,0,1-.14,3.25h0a2.3,2.3,0,0,1-3.24-.14l-3.77-4.1A2.3,2.3,0,0,1,85.44,263Z" transform="translate(-61.67 -92.92)"/><path class="cls-1" d="M141.66,265.91l0.88-3,17.77,5.13-0.88,3C155.55,284.12,137.15,281,141.66,265.91Z" transform="translate(-61.67 -92.92)"/><path class="cls-1" d="M89.22,265.91l-0.88-3-17.77,5.13,0.88,3C75.33,284.12,93.73,281,89.22,265.91Z" transform="translate(-61.67 -92.92)"/><path class="cls-2" d="M95.06,351.68c-4.51,6.72-10.53,10.59-12,15.44-2.43,7.86,5.8,7.47,10.89,6.25,5.33-1.28,7.87-4.46,10.8-5.3,7.17-2.07,7.36-6.31,4.46-16.39S98.69,345.39,95.06,351.68Z" transform="translate(-61.67 -92.92)"/><path class="cls-2" d="M134.8,351.68c4.51,6.72,10.53,10.59,12,15.44,2.61,8.43-7.25,7.5-12.25,5.86-4.42-1.44-6.77-4.14-9.43-4.91-7.17-2.07-7.36-6.31-4.46-16.39S131.17,345.39,134.8,351.68Z" transform="translate(-61.67 -92.92)"/><path class="cls-1" d="M90.32,264.85h50.77l-8,87.32-11,1.63L120,290.17c0-5.76-8.59-5.8-8.59,0l-4.1,63.94-10.7-1.3Z" transform="translate(-61.67 -92.92)"/><path class="cls-3" d="M90.32,264.85h50.77v33.9H120v-8.59c0-5.76-8.59-5.8-8.59,0v8.59H90.32v-33.9Z" transform="translate(-61.67 -92.92)"/><path class="cls-1" d="M168.26,231.61l-20.13-35.47a8,8,0,0,0-7-4.37H90.32a8,8,0,0,0-7.3,4.37L62.89,231.61a9.44,9.44,0,0,0-.34,8.62l8.15,27.3,17.77-5.13-7.11-25.06,9-15.79V271.8h50.77V222l8.7,15.33-7.11,25.06,17.77,5.13,8.15-27.3A9.44,9.44,0,0,0,168.26,231.61Z" transform="translate(-61.67 -92.92)"/><path class="cls-4" d="M148.12,196.13a8,8,0,0,0-7-4.37H90.32a8,8,0,0,0-7.3,4.37l7.3,25.42V271.8h50.77V222Z" transform="translate(-61.67 -92.92)"/><path class="cls-5" d="M83.67,365.56a9.62,9.62,0,0,0-.65,1.56c-2.43,7.86,5.8,7.47,10.89,6.25,5.33-1.28,7.87-4.46,10.8-5.3,3.85-1.11,5.68-2.85,6.11-5.77-4.08,3.17-10.26,5.78-16.81,7.93A14.52,14.52,0,0,0,83.67,365.56Z" transform="translate(-61.67 -92.92)"/><path class="cls-6" d="M99,358.35a10.05,10.05,0,0,0-5.48-.85H93.4a5.79,5.79,0,0,0-1-.41,6.43,6.43,0,0,0-2.49-.23,0.6,0.6,0,1,0,.11,1.19l0.29,0a9.66,9.66,0,0,0-3,1.22,0.66,0.66,0,0,0,.49,1.14h0a6.4,6.4,0,0,0-2.08.88,0.6,0.6,0,0,0,.71,1A9.28,9.28,0,0,1,91,361.16a5.48,5.48,0,0,1,.55.41,7,7,0,0,1,.83.85,13.87,13.87,0,0,1,1.26,1.89,0.6,0.6,0,0,0,1-.6A13.19,13.19,0,0,0,93,361.23a8.57,8.57,0,0,1,3.18.92,0.6,0.6,0,0,0,.67-1A11.73,11.73,0,0,0,95,358.65a7.52,7.52,0,0,1,3.45.75A0.6,0.6,0,0,0,99,358.35ZM92.42,360c-0.35,0-.7,0-1,0a5.79,5.79,0,0,0-1.41-.58,16.68,16.68,0,0,1,2.45-.55l0.73-.09a5.17,5.17,0,0,1,.61.44,7.17,7.17,0,0,1,1.11,1.2A12.4,12.4,0,0,0,92.42,360Z" transform="translate(-61.67 -92.92)"/><path class="cls-5" d="M146.18,365.56a9.59,9.59,0,0,1,.65,1.56c2.43,7.86-5.8,7.47-10.89,6.25-5.33-1.28-7.87-4.46-10.8-5.3-3.85-1.11-5.68-2.85-6.11-5.77,4.08,3.17,10.26,5.78,16.81,7.93A14.52,14.52,0,0,1,146.18,365.56Z" transform="translate(-61.67 -92.92)"/><path class="cls-6" d="M144.07,361.28a6.4,6.4,0,0,0-2.08-.88h0a0.6,0.6,0,0,0,.46-0.15,0.6,0.6,0,0,0,0-1,9.65,9.65,0,0,0-3-1.22l0.29,0a0.6,0.6,0,1,0,.11-1.19,6.43,6.43,0,0,0-2.49.23,5.81,5.81,0,0,0-1,.41h-0.09a10.05,10.05,0,0,0-5.48.85,0.6,0.6,0,0,0,.58,1,7.52,7.52,0,0,1,3.45-.75,11.72,11.72,0,0,0-1.85,2.52,0.6,0.6,0,0,0,.67,1,8.58,8.58,0,0,1,3.18-.92,13.2,13.2,0,0,0-1.76,2.49,0.6,0.6,0,0,0,1,.6,13.86,13.86,0,0,1,1.26-1.89,7,7,0,0,1,.83-0.85,5.51,5.51,0,0,1,.55-0.41,9.28,9.28,0,0,1,4.54,1.09A0.6,0.6,0,0,0,144.07,361.28ZM138.48,360c-0.35,0-.7,0-1,0a12.41,12.41,0,0,0-2.45.39,7.16,7.16,0,0,1,1.11-1.2,5.15,5.15,0,0,1,.61-0.44l0.73,0.09a16.67,16.67,0,0,1,2.45.55A5.79,5.79,0,0,0,138.48,360Z" transform="translate(-61.67 -92.92)"/><polygon class="cls-7" points="9.03 174.62 7.84 170.63 25.66 165.48 26.8 169.49 9.03 174.62"/><polygon class="cls-7" points="98.78 174.62 99.97 170.63 82.14 165.48 81 169.49 98.78 174.62"/><path class="cls-1" d="M115.57,154h0A11.5,11.5,0,0,1,127,165.49v26.27a11.5,11.5,0,0,1-11.46,11.46h0a11.5,11.5,0,0,1-11.46-11.46V165.49A11.5,11.5,0,0,1,115.57,154Z" transform="translate(-61.67 -92.92)"/><path class="cls-8" d="M127,183.21h0c0,9.85-22.93,9.85-22.93,0h0C104.11,173.36,127,173.36,127,183.21Z" transform="translate(-61.67 -92.92)"/><path class="cls-1" d="M160.49,134.2a3.55,3.55,0,0,0-2.12.16c-0.27-21.49-13-41.44-42.79-41.44s-42.52,19.94-42.8,41.43a3.54,3.54,0,0,0-2.09-.15c-3.26.83-4.59,6.67-3,13s5.59,10.86,8.85,10A3.17,3.17,0,0,0,77,157.1c6.53,16.44,20.19,29.57,38.54,29.57s32-13.14,38.55-29.58a3.18,3.18,0,0,0,.48.17c3.26,0.83,7.23-3.66,8.85-10S163.75,135,160.49,134.2Z" transform="translate(-61.67 -92.92)"/><path class="cls-2" d="M131.72,148.84c1.71,0,3.11-2.56,3.11-5.7s-1.4-5.7-3.11-5.7-3.11,2.56-3.11,5.7S130,148.84,131.72,148.84Z" transform="translate(-61.67 -92.92)"/><path class="cls-2" d="M99.37,148.84c1.71,0,3.11-2.56,3.11-5.7s-1.4-5.7-3.11-5.7-3.11,2.56-3.11,5.7S97.66,148.84,99.37,148.84Z" transform="translate(-61.67 -92.92)"/><path class="cls-8" d="M121.87,155.29c-2.42,6.16-10.17,6-12.59,0A9,9,0,0,0,121.87,155.29Z" transform="translate(-61.67 -92.92)"/><path class="cls-9" d="M134.18,162.55c-6.76,4.32-22.78,7-31.94,5.24A204.35,204.35,0,0,0,134.18,162.55Z" transform="translate(-61.67 -92.92)"/><path class="cls-8" d="M124.81,167.89c-2.42,4.06-11.64,4.91-15,1.47A22,22,0,0,0,124.81,167.89Z" transform="translate(-61.67 -92.92)"/><path class="cls-10" d="M126.29,133.17c2.23-2.91,7.44-3,10.67-1.06,1.62,1,.61,1.39-0.44.88a8,8,0,0,0-9.17,1.52C126.07,135.67,125.05,134.79,126.29,133.17Z" transform="translate(-61.67 -92.92)"/><path class="cls-10" d="M103.55,133.17c-2.23-2.91-7.44-3-10.67-1.06-1.62,1-.61,1.39.44,0.88a8,8,0,0,1,9.17,1.52C103.77,135.67,104.79,134.79,103.55,133.17Z" transform="translate(-61.67 -92.92)"/></svg>